# xmcd CD database file
#
# Track frame offsets:
#	150
#	16447
#	32063
#	63341
#
# Disc length: 1437 seconds
#
# Revision: 0
# Processed by: cddbd v1.4PL0 Copyright (c) Steve Scherf et al.
# Submitted via: CDex 1.50
#
DISCID=2b059b04
DTITLE=Tin Pan Alley - Ashtray
DYEAR=2001
DGENRE=Rhythmic Soul
TTITLE0=Ashtray
TTITLE1=My Love Has Got A Gun
TTITLE2=Miffed
TTITLE3=CD-EXTRA Not Exactly Video!
EXTD=YEAR: 2001
EXTT0=
EXTT1=
EXTT2=
EXTT3=
PLAYORDER=
